<svg width="39" height="39" viewBox="0 0 39 39" fill="none" xmlns="http://www.w3.org/2000/svg">
<path d="M39 19.5C39 30.2719 30.2698 39 19.501 39C8.73215 39 0 30.2699 0 19.5C0 8.7301 8.72922 0 19.4971 0C30.2649 0 39 8.7301 39 19.5Z" fill="#3B4C60"/>
<path d="M23.4548 33.5387C23.4548 33.5387 28.1548 18.4375 6.79636 11.5357C6.79636 11.5357 -1.61464 33.2821 21.1528 36.213C21.1528 36.213 13.6074 27.9872 12.8956 22.6238C12.8956 22.6189 19.734 32.0257 23.4548 33.5387Z" fill="white"/>
<path d="M19.6763 9.68291C21.403 9.68291 22.8027 8.28301 22.8027 6.55614C22.8027 4.82927 21.403 3.42936 19.6763 3.42936C17.9496 3.42936 16.5498 4.82927 16.5498 6.55614C16.5498 8.28301 17.9496 9.68291 19.6763 9.68291Z" fill="#97D5C9"/>
<path d="M33.454 9.53701C28.7962 10.7797 25.327 12.463 22.7381 14.3354C20.0209 12.9517 17.2235 12.56 16.0348 12.4621C18.419 13.6107 23.2159 16.4447 25.3152 21.4144C26.8075 19.4266 27.8611 17.8529 27.8611 17.8529C27.7103 19.4882 26.9416 21.4105 25.9458 23.2956C26.547 25.6899 26.5177 28.5004 25.4318 31.7652C38.9227 26.206 33.454 9.53701 33.454 9.53701Z" fill="#97D5C9"/>
</svg>
