<svg width="249" height="181" viewBox="0 0 249 181" fill="none" xmlns="http://www.w3.org/2000/svg">
<path d="M248.548 47.7014C254.921 122.026 192.909 176.531 124.274 176.531C55.6394 176.531 0 118.852 0 47.7014C0 -23.4492 49.2664 86.2401 117.901 86.2401C188.535 20.1737 248.548 -23.4492 248.548 47.7014Z" fill="#97D5C9"/>
<path d="M150.626 8.10713H99.4824V19.8768H150.626V8.10713Z" fill="#3B4C60"/>
<path d="M150.626 19.8768H99.4824V25.5493H150.626V19.8768Z" fill="white"/>
<path d="M94.2597 19.8732V8.10712H73.7528C72.6346 8.10712 71.5274 8.3346 70.4943 8.77656C69.4613 9.21853 68.5227 9.86632 67.7322 10.6829C66.9417 11.4995 66.3148 12.469 65.8872 13.5358C65.4596 14.6027 65.2397 15.7461 65.2402 16.9007V164.315C65.2397 165.47 65.4596 166.613 65.8872 167.68C66.3148 168.747 66.9417 169.716 67.7322 170.533C68.5227 171.35 69.4613 171.997 70.4943 172.439C71.5274 172.881 72.6346 173.109 73.7528 173.109H175.143C177.401 173.107 179.566 172.18 181.163 170.531C182.759 168.882 183.657 166.647 183.659 164.315V16.9007C183.657 14.5691 182.759 12.3335 181.163 10.6848C179.566 9.03606 177.401 8.10899 175.143 8.10712H155.853V19.8732H175.143V159.747H73.7528V19.8732H94.2597Z" fill="#3B4C60"/>
<path d="M96.871 9.33786e-06C96.5279 -0.000924443 96.1879 0.0681838 95.8707 0.203364C95.5534 0.338543 95.2652 0.537129 95.0225 0.787706C94.7799 1.03828 94.5876 1.33591 94.4566 1.66348C94.3257 1.99106 94.2588 2.34211 94.2597 2.69648V28.2458C94.2588 28.6001 94.3257 28.9512 94.4566 29.2788C94.5876 29.6063 94.7799 29.904 95.0225 30.1545C95.2652 30.4051 95.5534 30.6037 95.8707 30.7389C96.1879 30.8741 96.5279 30.9432 96.871 30.9422H153.231C153.574 30.9432 153.914 30.8741 154.231 30.7389C154.549 30.6037 154.837 30.4051 155.079 30.1545C155.322 29.904 155.514 29.6063 155.645 29.2788C155.776 28.9512 155.843 28.6001 155.842 28.2458V2.69648C155.843 2.34211 155.776 1.99106 155.645 1.66348C155.514 1.33591 155.322 1.03828 155.079 0.787706C154.837 0.537129 154.549 0.338543 154.231 0.203364C153.914 0.0681838 153.574 -0.000924443 153.231 9.33786e-06H96.871ZM150.63 25.5493H99.4824L99.4824 5.3788H150.63V25.5493Z" fill="#97D5C9"/>
<path d="M227.253 110.534C227.253 149.46 196.698 181 159.009 181C121.319 181 90.7573 149.453 90.7573 110.534C90.7573 71.6158 121.309 40.0685 158.995 40.0685C196.681 40.0685 227.253 71.6158 227.253 110.534Z" fill="#3B4C60"/>
<path d="M172.847 161.265C172.847 161.265 189.296 106.695 114.544 81.7542C114.544 81.7542 85.1063 160.338 164.79 170.929C164.79 170.929 138.382 141.204 135.89 121.823C135.89 121.805 159.824 155.797 172.847 161.265Z" fill="white"/>
<path d="M159.622 75.059C165.665 75.059 170.564 70.0002 170.564 63.7599C170.564 57.5197 165.665 52.4609 159.622 52.4609C153.579 52.4609 148.68 57.5197 148.68 63.7599C148.68 70.0002 153.579 75.059 159.622 75.059Z" fill="white"/>
<path d="M207.843 74.5317C191.541 79.0223 179.399 85.1053 170.338 91.8712C160.828 86.8711 151.038 85.4556 146.877 85.1017C155.222 89.2526 172.011 99.4936 179.358 117.452C184.581 110.269 188.268 104.582 188.268 104.582C187.74 110.492 185.05 117.438 181.565 124.25C183.669 132.902 183.566 143.058 179.766 154.856C226.983 134.767 207.843 74.5317 207.843 74.5317Z" fill="#97D5C9"/>
</svg>
