<svg width="61" height="44" viewBox="0 0 61 44" fill="none" xmlns="http://www.w3.org/2000/svg">
<path d="M60.8893 11.5959C62.4506 29.6638 47.2588 42.9136 30.4446 42.9136C13.6305 42.9136 0 28.8922 0 11.5959C0 -5.70035 12.0693 20.9644 28.8834 20.9644C46.1874 4.9041 60.8893 -5.70035 60.8893 11.5959Z" fill="#97D5C9"/>
<path d="M36.9005 1.97079H24.3712V4.83192H36.9005V1.97079Z" fill="#3B4C60"/>
<path d="M36.9005 4.83192H24.3712V6.21088H36.9005V4.83192Z" fill="white"/>
<path d="M23.0917 4.83106V1.97079H18.068C17.794 1.97079 17.5228 2.02609 17.2697 2.13353C17.0166 2.24097 16.7867 2.39844 16.593 2.59695C16.3994 2.79547 16.2458 3.03113 16.141 3.29048C16.0363 3.54983 15.9824 3.82778 15.9825 4.10847V39.944C15.9824 40.2247 16.0363 40.5026 16.141 40.762C16.2458 41.0213 16.3994 41.257 16.593 41.4555C16.7867 41.654 17.0166 41.8115 17.2697 41.9189C17.5228 42.0264 17.794 42.0817 18.068 42.0817H42.9065C43.4597 42.0812 43.9901 41.8559 44.3812 41.4551C44.7724 41.0543 44.9923 40.5108 44.9927 39.944V4.10847C44.9923 3.54166 44.7724 2.9982 44.3812 2.5974C43.9901 2.19661 43.4597 1.97125 42.9065 1.97079H38.1807V4.83106H42.9065V38.8334H18.068V4.83106H23.0917Z" fill="#3B4C60"/>
<path d="M23.7315 2.26998e-06C23.6474 -0.000224727 23.5641 0.0165751 23.4864 0.0494365C23.4087 0.0822978 23.3381 0.130573 23.2786 0.191486C23.2192 0.2524 23.1721 0.324751 23.14 0.404382C23.1079 0.484013 23.0915 0.569354 23.0917 0.655498V6.86637C23.0915 6.95252 23.1079 7.03786 23.14 7.11749C23.1721 7.19712 23.2192 7.26947 23.2786 7.33039C23.3381 7.3913 23.4087 7.43957 23.4864 7.47243C23.5641 7.5053 23.6474 7.5221 23.7315 7.52187H37.5385C37.6226 7.5221 37.7059 7.5053 37.7836 7.47243C37.8613 7.43957 37.9319 7.3913 37.9913 7.33039C38.0508 7.26947 38.0979 7.19712 38.13 7.11749C38.1621 7.03786 38.1784 6.95252 38.1782 6.86637V0.655498C38.1784 0.569354 38.1621 0.484013 38.13 0.404382C38.0979 0.324751 38.0508 0.2524 37.9913 0.191486C37.9319 0.130573 37.8613 0.0822978 37.7836 0.0494365C37.7059 0.0165751 37.6226 -0.000224727 37.5385 2.26998e-06H23.7315ZM36.9013 6.21088H24.3712L24.3712 1.30755H36.9013V6.21088Z" fill="#97D5C9"/>
<path d="M55.6725 26.8702C55.6725 36.3328 48.1872 44 38.954 44C29.7207 44 22.2337 36.331 22.2337 26.8702C22.2337 17.4094 29.7182 9.74041 38.9506 9.74041C48.183 9.74041 55.6725 17.4094 55.6725 26.8702Z" fill="#3B4C60"/>
<path d="M42.344 39.2025C42.344 39.2025 46.3738 25.9369 28.061 19.8739C28.061 19.8739 20.8493 38.9771 40.3703 41.5518C40.3703 41.5518 33.9008 34.3258 33.2904 29.6143C33.2904 29.61 39.1538 37.8734 42.344 39.2025Z" fill="white"/>
<path d="M39.1042 18.2464C40.5847 18.2464 41.7849 17.0166 41.7849 15.4997C41.7849 13.9827 40.5847 12.7529 39.1042 12.7529C37.6238 12.7529 36.4236 13.9827 36.4236 15.4997C36.4236 17.0166 37.6238 18.2464 39.1042 18.2464Z" fill="white"/>
<path d="M50.9174 18.1182C46.9237 19.2098 43.9492 20.6886 41.7295 22.3333C39.3998 21.1178 37.0012 20.7737 35.982 20.6877C38.0263 21.6968 42.1392 24.1863 43.9391 28.552C45.2186 26.8057 46.1219 25.4233 46.1219 25.4233C45.9926 26.8599 45.3336 28.5485 44.4798 30.2045C44.9953 32.3077 44.9701 34.7766 44.039 37.6446C55.6062 32.7611 50.9174 18.1182 50.9174 18.1182Z" fill="#97D5C9"/>
</svg>
